<mxfile host="app.diagrams.net" modified="2021-05-28T03:49:11.368Z" agent="5.0 (Macintosh; Intel Mac OS X 10_15_7) AppleWebKit/537.36 (KHTML, like Gecko) Chrome/90.0.4430.212 Safari/537.36" etag="zzDQzXnTwD3ySu204z-f" version="14.7.2" type="github" pages="2">
  <diagram id="XrOp-hCifYHvVCoy_8z_" name="Works">
    <mxGraphModel dx="946" dy="613" grid="1" gridSize="10" guides="1" tooltips="1" connect="1" arrows="1" fold="1" page="1" pageScale="1" pageWidth="827" pageHeight="1169" math="0" shadow="0">
      <root>
        <mxCell id="0" />
        <mxCell id="1" parent="0" />
        <mxCell id="n34ojIebNzXvLdfFtZpw-1" value="FunctionBase升级" style="rounded=0;whiteSpace=wrap;html=1;" vertex="1" parent="1">
          <mxGeometry x="390" y="120" width="136" height="50" as="geometry" />
        </mxCell>
        <mxCell id="n34ojIebNzXvLdfFtZpw-3" value="Op写法简化" style="rounded=0;whiteSpace=wrap;html=1;" vertex="1" parent="1">
          <mxGeometry x="160" y="220" width="136" height="50" as="geometry" />
        </mxCell>
        <mxCell id="n34ojIebNzXvLdfFtZpw-4" value="FunctionKernel管理" style="rounded=0;whiteSpace=wrap;html=1;" vertex="1" parent="1">
          <mxGeometry x="390" y="220" width="136" height="50" as="geometry" />
        </mxCell>
        <mxCell id="n34ojIebNzXvLdfFtZpw-5" value="动态图执行兼容" style="rounded=0;whiteSpace=wrap;html=1;" vertex="1" parent="1">
          <mxGeometry x="260" y="400" width="136" height="50" as="geometry" />
        </mxCell>
        <mxCell id="n34ojIebNzXvLdfFtZpw-6" value="静态图执行兼容" style="rounded=0;whiteSpace=wrap;html=1;" vertex="1" parent="1">
          <mxGeometry x="490" y="400" width="136" height="50" as="geometry" />
        </mxCell>
        <mxCell id="n34ojIebNzXvLdfFtZpw-7" value="C++ API目录梳理" style="rounded=0;whiteSpace=wrap;html=1;" vertex="1" parent="1">
          <mxGeometry x="620" y="220" width="136" height="50" as="geometry" />
        </mxCell>
      </root>
    </mxGraphModel>
  </diagram>
  <diagram id="uijFHvmT4Csf2FrLwu89" name="torch-path">
    <mxGraphModel dx="946" dy="613" grid="1" gridSize="10" guides="1" tooltips="1" connect="1" arrows="1" fold="1" page="1" pageScale="1" pageWidth="827" pageHeight="1169" math="0" shadow="0">
      <root>
        <mxCell id="A5d_hz3Pc_tX-qH7mz_q-0" />
        <mxCell id="A5d_hz3Pc_tX-qH7mz_q-1" parent="A5d_hz3Pc_tX-qH7mz_q-0" />
        <mxCell id="A5d_hz3Pc_tX-qH7mz_q-6" style="edgeStyle=orthogonalEdgeStyle;rounded=0;orthogonalLoop=1;jettySize=auto;html=1;exitX=0.5;exitY=1;exitDx=0;exitDy=0;entryX=0.5;entryY=0;entryDx=0;entryDy=0;" edge="1" parent="A5d_hz3Pc_tX-qH7mz_q-1" source="A5d_hz3Pc_tX-qH7mz_q-2" target="A5d_hz3Pc_tX-qH7mz_q-3">
          <mxGeometry relative="1" as="geometry" />
        </mxCell>
        <mxCell id="A5d_hz3Pc_tX-qH7mz_q-2" value="torch.add" style="rounded=0;whiteSpace=wrap;html=1;" vertex="1" parent="A5d_hz3Pc_tX-qH7mz_q-1">
          <mxGeometry x="260" y="80" width="130" height="40" as="geometry" />
        </mxCell>
        <mxCell id="A5d_hz3Pc_tX-qH7mz_q-7" style="edgeStyle=orthogonalEdgeStyle;rounded=0;orthogonalLoop=1;jettySize=auto;html=1;exitX=0.5;exitY=1;exitDx=0;exitDy=0;" edge="1" parent="A5d_hz3Pc_tX-qH7mz_q-1" source="A5d_hz3Pc_tX-qH7mz_q-3" target="A5d_hz3Pc_tX-qH7mz_q-4">
          <mxGeometry relative="1" as="geometry" />
        </mxCell>
        <mxCell id="A5d_hz3Pc_tX-qH7mz_q-3" value="torch::add" style="rounded=0;whiteSpace=wrap;html=1;" vertex="1" parent="A5d_hz3Pc_tX-qH7mz_q-1">
          <mxGeometry x="260" y="150" width="130" height="40" as="geometry" />
        </mxCell>
        <mxCell id="A5d_hz3Pc_tX-qH7mz_q-8" style="edgeStyle=orthogonalEdgeStyle;rounded=0;orthogonalLoop=1;jettySize=auto;html=1;exitX=0.5;exitY=1;exitDx=0;exitDy=0;" edge="1" parent="A5d_hz3Pc_tX-qH7mz_q-1" source="A5d_hz3Pc_tX-qH7mz_q-4">
          <mxGeometry relative="1" as="geometry">
            <mxPoint x="325" y="290" as="targetPoint" />
          </mxGeometry>
        </mxCell>
        <mxCell id="A5d_hz3Pc_tX-qH7mz_q-4" value="Dispatcher" style="rounded=0;whiteSpace=wrap;html=1;" vertex="1" parent="A5d_hz3Pc_tX-qH7mz_q-1">
          <mxGeometry x="260" y="220" width="130" height="40" as="geometry" />
        </mxCell>
        <mxCell id="A5d_hz3Pc_tX-qH7mz_q-5" value="FuncPtr(args...)" style="rounded=0;whiteSpace=wrap;html=1;" vertex="1" parent="A5d_hz3Pc_tX-qH7mz_q-1">
          <mxGeometry x="260" y="370" width="130" height="40" as="geometry" />
        </mxCell>
        <mxCell id="A5d_hz3Pc_tX-qH7mz_q-9" value="Dispatch" style="rhombus;whiteSpace=wrap;html=1;" vertex="1" parent="A5d_hz3Pc_tX-qH7mz_q-1">
          <mxGeometry x="250" y="290" width="150" height="60" as="geometry" />
        </mxCell>
      </root>
    </mxGraphModel>
  </diagram>
</mxfile>
